<svg viewBox="0 0 39 55" fill="none" xmlns="http://www.w3.org/2000/svg">
<path id="Vector 47" d="M34.0372 33.3679C23.6636 31.0071 18.1987 37.633 13.6128 46.3424C12.4767 48.4999 9.83266 55.3033 10.4918 52.958C11.8162 48.2455 12.5731 43.4349 12.1579 38.5501C11.6007 31.9954 9.15528 28.6739 3.64696 25.6865C3.56859 25.644 1.42768 24.6617 2.18775 24.6716C5.01343 24.7082 7.46143 24.6473 10.1249 23.3655C16.2437 20.4209 20.4777 14.8201 22.9183 8.59169C23.6818 6.64327 24.3653 4.39374 24.5413 2.29679C24.6805 0.639318 23.4001 5.44884 23.1059 7.08801C21.1103 18.2077 27.4716 28.2467 36.8517 33.1857" stroke="#FD8806" stroke-width="3" stroke-linecap="round"/>
</svg>
