<svg  viewBox="0 0 53 86" fill="none" xmlns="http://www.w3.org/2000/svg">
<g id="Group 29">
<path id="Vector 45" d="M3.51961 69.4396C10.0131 67.7404 11.1176 62.5335 11.1176 56.4386C11.1176 54.9287 10.5932 50.4384 10.915 51.9135C11.5617 54.8776 12.5545 57.7316 14.2244 60.2882C16.4651 63.7188 18.8096 64.8331 22.768 64.8808C22.8243 64.8815 24.3101 64.802 23.8823 65.0159C22.2921 65.811 20.9416 66.5507 19.83 68.0214C17.2765 71.3999 16.5582 75.6901 17.0272 79.8067C17.1739 81.0945 17.454 82.5242 17.9728 83.724C18.3828 84.6722 17.6829 81.6677 17.3649 80.6847C15.2075 74.0165 8.69697 70.3514 2 70.3514" stroke="#FD8806" stroke-width="3" stroke-linecap="round"/>
<path id="Vector 46" d="M21.8901 25.9073C30.9794 24.6075 33.3382 17.5803 34.3454 9.14529C34.5949 7.05573 34.6255 0.756405 34.8183 2.85007C35.2057 7.05688 36.0808 11.1675 37.9235 14.9762C40.3961 20.0868 43.3924 22.0088 48.754 22.7159C48.8303 22.726 50.859 22.8567 50.2434 23.0834C47.9548 23.9262 46.0007 24.7311 44.2498 26.5864C40.2275 30.8485 38.5443 36.6695 38.5002 42.4427C38.4864 44.2487 38.63 46.2726 39.1355 48.017C39.535 49.3958 39.0821 45.1243 38.8131 43.7125C36.9886 34.1346 28.7626 28.0078 19.6781 26.923" stroke="#FD8806" stroke-width="3" stroke-linecap="round"/>
</g>
</svg>
