<svg viewBox="0 0 203 34" fill="none" xmlns="http://www.w3.org/2000/svg">
<path fill-rule="evenodd" clip-rule="evenodd" d="M2.12037 8.57496C2.95525 7.74008 4.33293 7.82585 5.05781 8.75784L7.07573 11.3523C7.44604 11.8284 7.5769 12.4483 7.4306 13.0335L6.81493 15.4962C6.74993 15.7562 6.82611 16.0312 7.01561 16.2207L9.77927 18.9844C9.96877 19.1739 10.2438 19.2501 10.5038 19.1851L12.9665 18.5694C13.5517 18.4231 14.1716 18.554 14.6477 18.9243L17.2422 20.9422C18.1741 21.6671 18.2599 23.0448 17.425 23.8796L16.2619 25.0428C15.4297 25.875 14.185 26.2404 13.025 25.8326C10.1447 24.8199 7.44118 23.1621 5.13955 20.8605C2.83792 18.5588 1.18007 15.8553 0.167443 12.975C-0.240393 11.815 0.125021 10.5703 0.957206 9.73812L2.12037 8.57496Z" fill="white"/>
<path d="M32.24 25.36L31.448 23.584C32.728 23.44 33.86 23.152 34.844 22.72C35.828 22.288 36.668 21.748 37.364 21.1C38.068 20.452 38.632 19.736 39.056 18.952C39.48 18.16 39.78 17.34 39.956 16.492C39.508 17.156 38.92 17.688 38.192 18.088C37.472 18.48 36.676 18.676 35.804 18.676C34.756 18.676 33.808 18.448 32.96 17.992C32.112 17.536 31.44 16.904 30.944 16.096C30.456 15.288 30.212 14.36 30.212 13.312C30.212 12.28 30.468 11.352 30.98 10.528C31.5 9.704 32.216 9.052 33.128 8.572C34.048 8.084 35.092 7.84 36.26 7.84C37.484 7.84 38.568 8.104 39.512 8.632C40.456 9.16 41.196 9.928 41.732 10.936C42.276 11.936 42.548 13.156 42.548 14.596C42.548 16.028 42.292 17.352 41.78 18.568C41.268 19.784 40.544 20.86 39.608 21.796C38.68 22.732 37.588 23.504 36.332 24.112C35.084 24.72 33.72 25.136 32.24 25.36ZM36.26 16.768C36.988 16.768 37.64 16.616 38.216 16.312C38.792 16.008 39.248 15.592 39.584 15.064C39.92 14.536 40.088 13.94 40.088 13.276C40.088 12.604 39.924 12.008 39.596 11.488C39.276 10.968 38.828 10.56 38.252 10.264C37.676 9.96 37.012 9.808 36.26 9.808C35.524 9.808 34.864 9.96 34.28 10.264C33.704 10.56 33.252 10.968 32.924 11.488C32.596 12.008 32.432 12.604 32.432 13.276C32.432 13.94 32.6 14.536 32.936 15.064C33.28 15.592 33.74 16.008 34.316 16.312C34.9 16.616 35.548 16.768 36.26 16.768ZM51.3669 25.36C50.1509 25.36 49.0949 25.136 48.1989 24.688C47.3109 24.24 46.6229 23.636 46.1349 22.876C45.6549 22.116 45.4149 21.264 45.4149 20.32C45.4149 19.64 45.5349 19.036 45.7749 18.508C46.0229 17.98 46.3789 17.52 46.8429 17.128C47.3149 16.736 47.8789 16.412 48.5349 16.156C47.8629 15.892 47.2709 15.444 46.7589 14.812C46.2469 14.18 45.9909 13.384 45.9909 12.424C45.9909 11.544 46.2229 10.76 46.6869 10.072C47.1509 9.376 47.7909 8.832 48.6069 8.44C49.4229 8.04 50.3549 7.84 51.4029 7.84C52.4669 7.84 53.4109 8.04 54.2349 8.44C55.0589 8.84 55.7029 9.388 56.1669 10.084C56.6309 10.772 56.8629 11.552 56.8629 12.424C56.8629 13.064 56.7429 13.632 56.5029 14.128C56.2709 14.624 55.9589 15.044 55.5669 15.388C55.1829 15.724 54.7629 15.98 54.3069 16.156C55.2349 16.532 55.9789 17.068 56.5389 17.764C57.0989 18.452 57.3789 19.304 57.3789 20.32C57.3789 21.264 57.1309 22.116 56.6349 22.876C56.1389 23.636 55.4389 24.24 54.5349 24.688C53.6389 25.136 52.5829 25.36 51.3669 25.36ZM51.4029 23.428C52.0669 23.428 52.6829 23.312 53.2509 23.08C53.8269 22.84 54.2869 22.484 54.6309 22.012C54.9829 21.54 55.1589 20.956 55.1589 20.26C55.1589 19.572 54.9909 18.992 54.6549 18.52C54.3269 18.048 53.8789 17.692 53.3109 17.452C52.7429 17.204 52.1069 17.08 51.4029 17.08C50.3229 17.08 49.4229 17.356 48.7029 17.908C47.9909 18.452 47.6349 19.236 47.6349 20.26C47.6349 20.956 47.8069 21.54 48.1509 22.012C48.4949 22.484 48.9509 22.84 49.5189 23.08C50.0949 23.312 50.7229 23.428 51.4029 23.428ZM51.4269 15.196C52.0749 15.196 52.6509 15.088 53.1549 14.872C53.6589 14.648 54.0509 14.336 54.3309 13.936C54.6109 13.536 54.7509 13.06 54.7509 12.508C54.7509 11.692 54.4429 11.008 53.8269 10.456C53.2189 9.904 52.4189 9.628 51.4269 9.628C50.7629 9.628 50.1789 9.756 49.6749 10.012C49.1789 10.26 48.7909 10.604 48.5109 11.044C48.2309 11.476 48.0909 11.964 48.0909 12.508C48.0909 13.332 48.4029 13.988 49.0269 14.476C49.6589 14.956 50.4589 15.196 51.4269 15.196ZM66.9016 25.36C65.8456 25.36 64.8936 25.132 64.0456 24.676C63.2056 24.22 62.4896 23.588 61.8976 22.78C61.3136 21.972 60.8656 21.04 60.5536 19.984C60.2416 18.928 60.0856 17.8 60.0856 16.6C60.0856 15.392 60.2416 14.26 60.5536 13.204C60.8656 12.148 61.3136 11.22 61.8976 10.42C62.4896 9.612 63.2056 8.98 64.0456 8.524C64.8936 8.068 65.8456 7.84 66.9016 7.84C67.9496 7.84 68.8936 8.068 69.7336 8.524C70.5736 8.98 71.2896 9.612 71.8816 10.42C72.4736 11.22 72.9256 12.148 73.2376 13.204C73.5496 14.26 73.7056 15.392 73.7056 16.6C73.7056 17.8 73.5496 18.928 73.2376 19.984C72.9256 21.04 72.4736 21.972 71.8816 22.78C71.2896 23.588 70.5736 24.22 69.7336 24.676C68.8936 25.132 67.9496 25.36 66.9016 25.36ZM66.9016 23.32C67.5816 23.32 68.1976 23.168 68.7496 22.864C69.3096 22.552 69.7896 22.104 70.1896 21.52C70.5976 20.936 70.9096 20.232 71.1256 19.408C71.3496 18.576 71.4616 17.64 71.4616 16.6C71.4616 15.216 71.2696 14.02 70.8856 13.012C70.5016 12.004 69.9656 11.228 69.2776 10.684C68.5976 10.14 67.8056 9.868 66.9016 9.868C66.2216 9.868 65.6016 10.024 65.0416 10.336C64.4816 10.648 63.9976 11.096 63.5896 11.68C63.1896 12.264 62.8816 12.972 62.6656 13.804C62.4496 14.628 62.3416 15.56 62.3416 16.6C62.3416 17.984 62.5296 19.18 62.9056 20.188C63.2896 21.196 63.8216 21.972 64.5016 22.516C65.1896 23.052 65.9896 23.32 66.9016 23.32ZM76.5312 19.216V17.296H82.8193V19.216H76.5312ZM91.6325 25.36C90.4165 25.36 89.3605 25.136 88.4645 24.688C87.5765 24.24 86.8885 23.636 86.4005 22.876C85.9205 22.116 85.6805 21.264 85.6805 20.32C85.6805 19.64 85.8005 19.036 86.0405 18.508C86.2885 17.98 86.6445 17.52 87.1085 17.128C87.5805 16.736 88.1445 16.412 88.8005 16.156C88.1285 15.892 87.5365 15.444 87.0245 14.812C86.5125 14.18 86.2565 13.384 86.2565 12.424C86.2565 11.544 86.4885 10.76 86.9525 10.072C87.4165 9.376 88.0565 8.832 88.8725 8.44C89.6885 8.04 90.6205 7.84 91.6685 7.84C92.7325 7.84 93.6765 8.04 94.5005 8.44C95.3245 8.84 95.9685 9.388 96.4325 10.084C96.8965 10.772 97.1285 11.552 97.1285 12.424C97.1285 13.064 97.0085 13.632 96.7685 14.128C96.5365 14.624 96.2245 15.044 95.8325 15.388C95.4485 15.724 95.0285 15.98 94.5725 16.156C95.5005 16.532 96.2445 17.068 96.8045 17.764C97.3645 18.452 97.6445 19.304 97.6445 20.32C97.6445 21.264 97.3965 22.116 96.9005 22.876C96.4045 23.636 95.7045 24.24 94.8005 24.688C93.9045 25.136 92.8485 25.36 91.6325 25.36ZM91.6685 23.428C92.3325 23.428 92.9485 23.312 93.5165 23.08C94.0925 22.84 94.5525 22.484 94.8965 22.012C95.2485 21.54 95.4245 20.956 95.4245 20.26C95.4245 19.572 95.2565 18.992 94.9205 18.52C94.5925 18.048 94.1445 17.692 93.5765 17.452C93.0085 17.204 92.3725 17.08 91.6685 17.08C90.5885 17.08 89.6885 17.356 88.9685 17.908C88.2565 18.452 87.9005 19.236 87.9005 20.26C87.9005 20.956 88.0725 21.54 88.4165 22.012C88.7605 22.484 89.2165 22.84 89.7845 23.08C90.3605 23.312 90.9885 23.428 91.6685 23.428ZM91.6925 15.196C92.3405 15.196 92.9165 15.088 93.4205 14.872C93.9245 14.648 94.3165 14.336 94.5965 13.936C94.8765 13.536 95.0165 13.06 95.0165 12.508C95.0165 11.692 94.7085 11.008 94.0925 10.456C93.4845 9.904 92.6845 9.628 91.6925 9.628C91.0285 9.628 90.4445 9.756 89.9405 10.012C89.4445 10.26 89.0565 10.604 88.7765 11.044C88.4965 11.476 88.3565 11.964 88.3565 12.508C88.3565 13.332 88.6685 13.988 89.2925 14.476C89.9245 14.956 90.7245 15.196 91.6925 15.196ZM107.167 25.36C106.111 25.36 105.159 25.132 104.311 24.676C103.471 24.22 102.755 23.588 102.163 22.78C101.579 21.972 101.131 21.04 100.819 19.984C100.507 18.928 100.351 17.8 100.351 16.6C100.351 15.392 100.507 14.26 100.819 13.204C101.131 12.148 101.579 11.22 102.163 10.42C102.755 9.612 103.471 8.98 104.311 8.524C105.159 8.068 106.111 7.84 107.167 7.84C108.215 7.84 109.159 8.068 109.999 8.524C110.839 8.98 111.555 9.612 112.147 10.42C112.739 11.22 113.191 12.148 113.503 13.204C113.815 14.26 113.971 15.392 113.971 16.6C113.971 17.8 113.815 18.928 113.503 19.984C113.191 21.04 112.739 21.972 112.147 22.78C111.555 23.588 110.839 24.22 109.999 24.676C109.159 25.132 108.215 25.36 107.167 25.36ZM107.167 23.32C107.847 23.32 108.463 23.168 109.015 22.864C109.575 22.552 110.055 22.104 110.455 21.52C110.863 20.936 111.175 20.232 111.391 19.408C111.615 18.576 111.727 17.64 111.727 16.6C111.727 15.216 111.535 14.02 111.151 13.012C110.767 12.004 110.231 11.228 109.543 10.684C108.863 10.14 108.071 9.868 107.167 9.868C106.487 9.868 105.867 10.024 105.307 10.336C104.747 10.648 104.263 11.096 103.855 11.68C103.455 12.264 103.147 12.972 102.931 13.804C102.715 14.628 102.607 15.56 102.607 16.6C102.607 17.984 102.795 19.18 103.171 20.188C103.555 21.196 104.087 21.972 104.767 22.516C105.455 23.052 106.255 23.32 107.167 23.32ZM120.637 25V10.528L116.113 12.208L115.525 10.468L122.581 7.84H122.749V25H120.637ZM126.992 19.216V17.296H133.28V19.216H126.992ZM142.693 25.36C141.445 25.36 140.337 25.092 139.369 24.556C138.401 24.012 137.641 23.228 137.089 22.204C136.537 21.172 136.261 19.924 136.261 18.46C136.261 17.044 136.521 15.74 137.041 14.548C137.561 13.348 138.293 12.284 139.237 11.356C140.181 10.428 141.285 9.668 142.549 9.076C143.821 8.476 145.201 8.064 146.689 7.84L147.481 9.616C146.185 9.744 145.037 10.016 144.037 10.432C143.045 10.848 142.193 11.368 141.481 11.992C140.777 12.616 140.209 13.308 139.777 14.068C139.345 14.82 139.037 15.604 138.853 16.42C139.317 15.748 139.925 15.216 140.677 14.824C141.429 14.424 142.253 14.224 143.149 14.224C144.229 14.224 145.201 14.452 146.065 14.908C146.937 15.364 147.625 15.996 148.129 16.804C148.633 17.612 148.885 18.544 148.885 19.6C148.885 20.408 148.733 21.164 148.429 21.868C148.125 22.564 147.697 23.172 147.145 23.692C146.593 24.212 145.937 24.62 145.177 24.916C144.425 25.212 143.597 25.36 142.693 25.36ZM142.693 23.38C143.461 23.38 144.141 23.228 144.733 22.924C145.333 22.612 145.805 22.184 146.149 21.64C146.493 21.096 146.665 20.472 146.665 19.768C146.665 19.08 146.489 18.464 146.137 17.92C145.785 17.376 145.309 16.944 144.709 16.624C144.109 16.304 143.437 16.144 142.693 16.144C141.941 16.144 141.265 16.304 140.665 16.624C140.073 16.944 139.601 17.376 139.249 17.92C138.897 18.464 138.721 19.08 138.721 19.768C138.721 20.472 138.889 21.096 139.225 21.64C139.569 22.184 140.037 22.612 140.629 22.924C141.229 23.228 141.917 23.38 142.693 23.38ZM156.167 25.36C155.487 25.36 154.815 25.292 154.151 25.156C153.495 25.02 152.887 24.832 152.327 24.592C151.767 24.344 151.303 24.06 150.935 23.74L151.727 21.844C152.255 22.308 152.911 22.676 153.695 22.948C154.479 23.212 155.259 23.344 156.035 23.344C156.843 23.344 157.547 23.208 158.147 22.936C158.747 22.656 159.211 22.264 159.539 21.76C159.867 21.256 160.031 20.66 160.031 19.972C160.031 18.94 159.651 18.136 158.891 17.56C158.139 16.976 157.135 16.684 155.879 16.684C155.559 16.684 155.231 16.704 154.895 16.744C154.567 16.784 154.227 16.84 153.875 16.912L153.191 15.4L158.735 10.132H151.043V8.2H161.507V9.988L156.167 15.148C157.239 15.116 158.239 15.276 159.167 15.628C160.095 15.972 160.843 16.516 161.411 17.26C161.979 17.996 162.263 18.932 162.263 20.068C162.263 21.124 162.003 22.052 161.483 22.852C160.963 23.644 160.243 24.26 159.323 24.7C158.403 25.14 157.351 25.36 156.167 25.36ZM165.289 19.216V17.296H171.577V19.216H165.289ZM180.99 25.36C179.742 25.36 178.634 25.092 177.666 24.556C176.698 24.012 175.938 23.228 175.386 22.204C174.834 21.172 174.558 19.924 174.558 18.46C174.558 17.044 174.818 15.74 175.338 14.548C175.858 13.348 176.59 12.284 177.534 11.356C178.478 10.428 179.582 9.668 180.846 9.076C182.118 8.476 183.498 8.064 184.986 7.84L185.778 9.616C184.482 9.744 183.334 10.016 182.334 10.432C181.342 10.848 180.49 11.368 179.778 11.992C179.074 12.616 178.506 13.308 178.074 14.068C177.642 14.82 177.334 15.604 177.15 16.42C177.614 15.748 178.222 15.216 178.974 14.824C179.726 14.424 180.55 14.224 181.446 14.224C182.526 14.224 183.498 14.452 184.362 14.908C185.234 15.364 185.922 15.996 186.426 16.804C186.93 17.612 187.182 18.544 187.182 19.6C187.182 20.408 187.03 21.164 186.726 21.868C186.422 22.564 185.994 23.172 185.442 23.692C184.89 24.212 184.234 24.62 183.474 24.916C182.722 25.212 181.894 25.36 180.99 25.36ZM180.99 23.38C181.758 23.38 182.438 23.228 183.03 22.924C183.63 22.612 184.102 22.184 184.446 21.64C184.79 21.096 184.962 20.472 184.962 19.768C184.962 19.08 184.786 18.464 184.434 17.92C184.082 17.376 183.606 16.944 183.006 16.624C182.406 16.304 181.734 16.144 180.99 16.144C180.238 16.144 179.562 16.304 178.962 16.624C178.37 16.944 177.898 17.376 177.546 17.92C177.194 18.464 177.018 19.08 177.018 19.768C177.018 20.472 177.186 21.096 177.522 21.64C177.866 22.184 178.334 22.612 178.926 22.924C179.526 23.228 180.214 23.38 180.99 23.38ZM194.464 25.36C193.784 25.36 193.112 25.292 192.448 25.156C191.792 25.02 191.184 24.832 190.624 24.592C190.064 24.344 189.6 24.06 189.232 23.74L190.024 21.844C190.552 22.308 191.208 22.676 191.992 22.948C192.776 23.212 193.556 23.344 194.332 23.344C195.14 23.344 195.844 23.208 196.444 22.936C197.044 22.656 197.508 22.264 197.836 21.76C198.164 21.256 198.328 20.66 198.328 19.972C198.328 18.94 197.948 18.136 197.188 17.56C196.436 16.976 195.432 16.684 194.176 16.684C193.856 16.684 193.528 16.704 193.192 16.744C192.864 16.784 192.524 16.84 192.172 16.912L191.488 15.4L197.032 10.132H189.34V8.2H199.804V9.988L194.464 15.148C195.536 15.116 196.536 15.276 197.464 15.628C198.392 15.972 199.14 16.516 199.708 17.26C200.276 17.996 200.56 18.932 200.56 20.068C200.56 21.124 200.3 22.052 199.78 22.852C199.26 23.644 198.54 24.26 197.62 24.7C196.7 25.14 195.648 25.36 194.464 25.36Z" fill="white"/>
</svg>
